:FULLY-SPECIFIED
:FORCE-ALL-JOINTS-BE-3DOF
:DEGREES
306
root -1.30244 15.4192 -36.2103 27.5506 70.7618 23.0961
lfemur -25.7725 16.014 -21.9346
ltibia 59.6876 0 0
lfoot -28.0375 29.238 0
ltoes -7.54087 0 0
rfemur -50.2475 -5.01547 11.532
rtibia 94.6962 0 0
rfoot 4.67935 -6.83525 0
rtoes -19.4781 0 0
lowerback 16.5003 -2.18824 -10.0435
upperback -1.34427 -4.71112 1.93464
thorax -9.80514 -1.63957 8.98798
lowerneck -7.13672 3.47695 0.920646
upperneck 2.97766 4.80794 -4.69713
head 2.33411 2.27651 -1.4586
lclavicle 3.32099e-14 -1.43273e-14 0
lhumerus 5.11257 -9.02112 76.9683
lradius 66.7561 0 0
lwrist -25.7556 0 0
lhand -25.0068 37.2385 0
lfingers 7.12502 0 0
lthumb 9.8422 71.1751 0
rclavicle -2.47839e-14 1.22811e-14 0
rhumerus -53.6394 2.57401 -83.9781
rradius 94.7637 0 0
rwrist -47.1826 0 0
rhand -10.0316 -41.3477 0
rfingers 7.12502 0 0
rthumb 28.9545 -35.437 0
307
root -1.16394 15.4083 -36.1978 28.7552 70.7487 24.8541
lfemur -24.347 15.1969 -21.6725
ltibia 58.528 0 0
lfoot -28.0093 29.0412 0
ltoes -7.75122 0 0
rfemur -50.7564 -4.50666 11.33
rtibia 96.1773 0 0
rfoot 4.7794 -6.53596 0
rtoes -18.1411 0 0
lowerback 16.8407 -1.66903 -10.5655
upperback -1.21366 -4.18645 1.60323
thorax -9.96337 -1.36042 8.82257
lowerneck -7.01516 3.0726 0.630953
upperneck 2.93353 4.28129 -4.49596
head 2.26605 2.01873 -1.36775
lclavicle 2.78119e-14 -1.39485e-14 0
lhumerus 3.76844 -11.5742 78.9733
lradius 63.4367 0 0
lwrist -27.733 0 0
lhand -25.1626 36.3906 0
lfingers 7.12502 0 0
lthumb 9.57121 71.5634 0
rclavicle -2.41266e-14 1.16346e-14 0
rhumerus -50.6129 2.83259 -83.4917
rradius 94.2561 0 0
rwrist -46.6948 0 0
rhand -10.1963 -41.4535 0
rfingers 7.12502 0 0
rthumb 28.9477 -34.8878 0
308
root -1.01821 15.3922 -36.1866 28.9531 70.8167 25.9038
lfemur -22.8188 14.3208 -21.3914
ltibia 57.4344 0 0
lfoot -27.9811 28.8432 0
ltoes -7.9974 0 0
rfemur -51.1697 -4.09341 11.166
rtibia 97.3881 0 0
rfoot 4.91442 -6.13207 0
rtoes -16.7708 0 0
lowerback 17.4245 -1.20823 -10.8434
upperback -1.00099 -3.70557 1.36184
thorax -10.1664 -1.1124 8.63466
lowerneck -6.81881 2.77332 0.253512
upperneck 2.88687 3.89805 -4.22765
head 2.18604 1.83389 -1.2339
lclavicle 2.25254e-14 -1.35775e-14 0
lhumerus 2.36769 -14.2348 81.0628
lradius 60.2421 0 0
lwrist -29.3422 0 0
lhand -25.3075 35.6014 0
lfingers 7.12502 0 0
lthumb 9.28963 71.9669 0
rclavicle -2.3356e-14 1.08766e-14 0
rhumerus -47.0708 3.1352 -82.9225
rradius 93.7004 0 0
rwrist -46.2266 0 0
rhand -10.4598 -41.6227 0
rfingers 7.12502 0 0
rthumb 28.9426 -34.479 0
309
root -0.871526 15.3772 -36.1717 29.1304 71.0279 27.1509
lfemur -21.2083 13.3977 -21.0953
ltibia 56.42 0 0
lfoot -27.9529 28.6464 0
ltoes -8.27543 0 0
rfemur -51.4774 -3.78578 11.0439
rtibia 98.2948 0 0
rfoot 5.08149 -5.63229 0
rtoes -15.3806 0 0
lowerback 18.1589 -0.700861 -11.1603
upperback -0.71245 -3.18563 1.13369
thorax -10.3731 -0.846022 8.47119
lowerneck -6.58612 2.42676 -0.0720245
upperneck 2.87965 3.44037 -3.84381
head 2.11243 1.61478 -1.07513
lclavicle 1.74062e-14 -1.32183e-14 0
lhumerus 0.926491 -16.9722 83.2125
lradius 57.2036 0 0
lwrist -30.5423 0 0
lhand -25.4386 34.8876 0
lfingers 7.12502 0 0
lthumb 9.00011 72.3817 0
rclavicle -2.24839e-14 1.00188e-14 0
rhumerus -43.0705 3.47697 -82.2796
rradius 93.1047 0 0
rwrist -45.7838 0 0
rhand -10.8131 -41.8497 0
rfingers 7.12502 0 0
rthumb 28.9394 -34.2239 0
310
root -0.721835 15.3617 -36.1538 28.9953 71.4231 28.3115
lfemur -19.5362 12.4392 -20.7878
ltibia 55.498 0 0
lfoot -27.9253 28.4528 0
ltoes -8.58134 0 0
rfemur -51.6694 -3.59382 10.9677
rtibia 98.8636 0 0
rfoot 5.27769 -5.04533 0
rtoes -13.9837 0 0
lowerback 19.1104 -0.217413 -11.4631
upperback -0.333249 -2.70799 1.00557
thorax -10.5823 -0.600542 8.42082
lowerneck -6.52859 2.08233 -0.289046
upperneck 3.02378 2.98419 -3.48775
head 2.12763 1.39236 -0.942162
lclavicle 1.25099e-14 -1.28747e-14 0
lhumerus -0.538973 -19.7558 85.3985
lradius 54.3524 0 0
lwrist -31.2923 0 0
lhand -25.5527 34.266 0
lfingers 7.12502 0 0
lthumb 8.7053 72.8042 0
rclavicle -2.15224e-14 9.07304e-15 0
rhumerus -38.6691 3.853 -81.5723
rradius 92.4769 0 0
rwrist -45.372 0 0
rhand -11.2473 -42.1285 0
rfingers 7.12502 0 0
rthumb 28.9383 -34.1359 0
311
root -0.568613 15.3463 -36.126 28.8257 72.0455 29.3448
lfemur -17.8229 11.4571 -20.4728
ltibia 54.6817 0 0
lfoot -27.8984 28.2647 0
ltoes -8.91113 0 0
rfemur -51.7356 -3.5276 10.9414
rtibia 99.0607 0 0
rfoot 5.50013 -4.37992 0
rtoes -12.5935 0 0
lowerback 20.5175 0.214431 -11.2908
upperback -0.354421 -2.30051 0.749717
thorax -11.5146 -0.352814 7.9917
lowerneck -6.27414 1.65809 -0.534648
upperneck 3.50828 2.41151 -2.81345
head 2.21466 1.11666 -0.708694
lclavicle 7.89232e-15 -1.25506e-14 0
lhumerus -2.01253 -22.5547 87.5966
lradius 51.7198 0 0
lwrist -31.5514 0 0
lhand -25.6469 33.7533 0
lfingers 7.12502 0 0
lthumb 8.40783 73.2304 0
rclavicle -2.04833e-14 8.05096e-15 0
rhumerus -33.9241 4.2584 -80.8097
rradius 91.825 0 0
rwrist -44.9969 0 0
rhand -11.7534 -42.4535 0
rfingers 7.12502 0 0
rthumb 28.7712 -34.2622 0
